ffmpeg started on 2025-05-19 at 12:28:13
Report written to "D:\Convert\FFMetrics\reports\ssim_report-6.txt"
Log level: 32
Command line:
ffmpeg -hide_banner -nostdin -i "G:\\\xc0\xed\xe8\xec\xe5\\\xce\xed\xe3\xee\xe8\xed\xe3\xe8\\!_30_\xc2\xe5\xf1\xed\xe0_2023\\DreamCast\\\xd2\xe5\xed\xfc \xeb\xfe\xe1\xe2\xe8 \xe2 \xf2\xe0\xe9\xed\xee\xe9 \xea\xee\xec\xed\xe0\xf2\xe5\\[DC] Aiyou de Mishi - 11_Telegram_HEVC.mkv" -i "G:\\\xc0\xed\xe8\xec\xe5\\\xce\xed\xe3\xee\xe8\xed\xe3\xe8\\!_30_\xc2\xe5\xf1\xed\xe0_2023\\DreamCast\\\xd2\xe5\xed\xfc \xeb\xfe\xe1\xe2\xe8 \xe2 \xf2\xe0\xe9\xed\xee\xe9 \xea\xee\xec\xed\xe0\xf2\xe5\\[DC] Aiyou de Mishi - 11_Telegram.mp4" -lavfi "[0:v]settb=AVTB,setpts=PTS-STARTPTS,format=pix_fmts=yuv420p10,fps=24/1,scale=1920:1080:flags=bicubic[main];[1:v]settb=AVTB,setpts=PTS-STARTPTS,format=pix_fmts=yuv420p,fps=24/1,scale=1920:1080:flags=bicubic[ref];[main][ref]ssim=eof_action=endall:stats_file='D\\:/Convert/FFMetrics/logs/ssim_logfile-6.txt'" -f null -
Input #0, matroska,webm, from 'G:\Аниме\Онгоинги\!_30_Весна_2023\DreamCast\Тень любви в тайной комнате\[DC] Aiyou de Mishi - 11_Telegram_HEVC.mkv':
  Metadata:
    COMPATIBLE_BRANDS: isomiso2avc1mp41
    MAJOR_BRAND     : isom
    MINOR_VERSION   : 512
    ENCODER         : Lavf61.7.100
  Duration: 00:16:59.54, start: -0.021000, bitrate: 1493 kb/s
  Stream #0:0: Video: hevc (Main 10), yuv420p10le(tv, bt709, progressive), 1920x1080 [SAR 1:1 DAR 16:9], 24 fps, 24 tbr, 1k tbn (default)
      Metadata:
        HANDLER_NAME    : VideoHandler
        VENDOR_ID       : [0][0][0][0]
        ENCODER         : Lavc61.19.100 libx265
        BPS             : 1293743
        DURATION        : 00:16:59.416666666
        NUMBER_OF_FRAMES: 24466
        NUMBER_OF_BYTES : 164857803
        _STATISTICS_WRITING_APP: mkvpropedit v66.0.0 ('Josie') 64-bit
        _STATISTICS_WRITING_DATE_UTC: 2025-05-19 08:24:46
        _STATISTICS_TAGS: BPS DURATION NUMBER_OF_FRAMES NUMBER_OF_BYTES
  Stream #0:1: Audio: aac (LC), 48000 Hz, stereo, fltp (default)
      Metadata:
        HANDLER_NAME    : SoundHandler
        VENDOR_ID       : [0][0][0][0]
        ENCODER         : Lavc61.19.100 aac
        BPS             : 195666
        DURATION        : 00:16:59.520000000
        NUMBER_OF_FRAMES: 47791
        NUMBER_OF_BYTES : 24935766
        _STATISTICS_WRITING_APP: mkvpropedit v66.0.0 ('Josie') 64-bit
        _STATISTICS_WRITING_DATE_UTC: 2025-05-19 08:24:46
        _STATISTICS_TAGS: BPS DURATION NUMBER_OF_FRAMES NUMBER_OF_BYTES
Input #1, mov,mp4,m4a,3gp,3g2,mj2, from 'G:\Аниме\Онгоинги\!_30_Весна_2023\DreamCast\Тень любви в тайной комнате\[DC] Aiyou de Mishi - 11_Telegram.mp4':
  Metadata:
    major_brand     : isom
    minor_version   : 512
    compatible_brands: isomiso2avc1mp41
    encoder         : Lavf60.5.100
  Duration: 00:16:59.51, start: 0.000000, bitrate: 3790 kb/s
  Stream #1:0[0x1](und): Video: h264 (Main) (avc1 / 0x31637661), yuv420p(tv, bt709, progressive), 1920x1080 [SAR 1:1 DAR 16:9], 3589 kb/s, 24 fps, 24 tbr, 12288 tbn (default)
      Metadata:
        handler_name    : VideoHandler
        vendor_id       : [0][0][0][0]
        encoder         : Lavc60.14.100 h264_qsv
  Stream #1:1[0x2](und): Audio: aac (LC) (mp4a / 0x6134706D), 48000 Hz, stereo, fltp, 195 kb/s (default)
      Metadata:
        handler_name    : SoundHandler
        vendor_id       : [0][0][0][0]
Stream mapping:
  Stream #0:0 (hevc) -> settb:default
  Stream #1:0 (h264) -> settb:default
  ssim:default -> Stream #0:0 (wrapped_avframe)
  Stream #0:1 -> #0:1 (aac (native) -> pcm_s16le (native))
Output #0, null, to 'pipe:':
  Metadata:
    COMPATIBLE_BRANDS: isomiso2avc1mp41
    MAJOR_BRAND     : isom
    MINOR_VERSION   : 512
    encoder         : Lavf61.7.100
  Stream #0:0: Video: wrapped_avframe, yuv420p10le(tv, bt709, progressive), 1920x1080 [SAR 1:1 DAR 16:9], q=2-31, 200 kb/s, 24 fps, 24 tbn
      Metadata:
        encoder         : Lavc61.19.100 wrapped_avframe
  Stream #0:1: Audio: pcm_s16le, 48000 Hz, stereo, s16, 1536 kb/s (default)
      Metadata:
        HANDLER_NAME    : SoundHandler
        VENDOR_ID       : [0][0][0][0]
        _STATISTICS_TAGS: BPS DURATION NUMBER_OF_FRAMES NUMBER_OF_BYTES
        BPS             : 195666
        DURATION        : 00:16:59.520000000
        NUMBER_OF_FRAMES: 47791
        NUMBER_OF_BYTES : 24935766
        _STATISTICS_WRITING_APP: mkvpropedit v66.0.0 ('Josie') 64-bit
        _STATISTICS_WRITING_DATE_UTC: 2025-05-19 08:24:46
        encoder         : Lavc61.19.100 pcm_s16le
frame=  186 fps=0.0 q=-0.0 size=N/A time=00:00:07.75 bitrate=N/A speed=15.1x    frame=  371 fps=360 q=-0.0 size=N/A time=00:00:15.45 bitrate=N/A speed=  15x    frame=  622 fps=401 q=-0.0 size=N/A time=00:00:25.91 bitrate=N/A speed=16.7x    frame=  833 fps=405 q=-0.0 size=N/A time=00:00:34.70 bitrate=N/A speed=16.9x    frame= 1080 fps=418 q=-0.0 size=N/A time=00:00:45.00 bitrate=N/A speed=17.4x    frame= 1310 fps=424 q=-0.0 size=N/A time=00:00:54.58 bitrate=N/A speed=17.7x    frame= 1519 fps=420 q=-0.0 size=N/A time=00:01:03.29 bitrate=N/A speed=17.5x    frame= 1759 fps=427 q=-0.0 size=N/A time=00:01:13.29 bitrate=N/A speed=17.8x    frame= 2005 fps=432 q=-0.0 size=N/A time=00:01:23.54 bitrate=N/A speed=  18x    frame= 2233 fps=434 q=-0.0 size=N/A time=00:01:33.04 bitrate=N/A speed=18.1x    frame= 2429 fps=428 q=-0.0 size=N/A time=00:01:41.20 bitrate=N/A speed=17.8x    frame= 2585 fps=418 q=-0.0 size=N/A time=00:01:47.70 bitrate=N/A speed=17.4x    frame= 2752 fps=410 q=-0.0 size=N/A time=00:01:54.66 bitrate=N/A speed=17.1x    frame= 2946 fps=408 q=-0.0 size=N/A time=00:02:02.75 bitrate=N/A speed=  17x    frame= 3130 fps=405 q=-0.0 size=N/A time=00:02:10.41 bitrate=N/A speed=16.9x    frame= 3272 fps=396 q=-0.0 size=N/A time=00:02:16.33 bitrate=N/A speed=16.5x    frame= 3479 fps=397 q=-0.0 size=N/A time=00:02:24.95 bitrate=N/A speed=16.5x    frame= 3707 fps=399 q=-0.0 size=N/A time=00:02:34.45 bitrate=N/A speed=16.6x    frame= 3906 fps=399 q=-0.0 size=N/A time=00:02:42.75 bitrate=N/A speed=16.6x    frame= 4062 fps=394 q=-0.0 size=N/A time=00:02:49.25 bitrate=N/A speed=16.4x    frame= 4303 fps=397 q=-0.0 size=N/A time=00:02:59.29 bitrate=N/A speed=16.6x    frame= 4561 fps=402 q=-0.0 size=N/A time=00:03:10.04 bitrate=N/A speed=16.8x    frame= 4835 fps=407 q=-0.0 size=N/A time=00:03:21.45 bitrate=N/A speed=  17x    frame= 5083 fps=411 q=-0.0 size=N/A time=00:03:31.79 bitrate=N/A speed=17.1x    frame= 5342 fps=414 q=-0.0 size=N/A time=00:03:42.58 bitrate=N/A speed=17.3x    frame= 5552 fps=414 q=-0.0 size=N/A time=00:03:51.33 bitrate=N/A speed=17.3x    frame= 5761 fps=414 q=-0.0 size=N/A time=00:04:00.04 bitrate=N/A speed=17.2x    frame= 5927 fps=410 q=-0.0 size=N/A time=00:04:06.95 bitrate=N/A speed=17.1x    frame= 6041 fps=404 q=-0.0 size=N/A time=00:04:11.70 bitrate=N/A speed=16.8x    frame= 6238 fps=403 q=-0.0 size=N/A time=00:04:19.91 bitrate=N/A speed=16.8x    frame= 6407 fps=401 q=-0.0 size=N/A time=00:04:26.95 bitrate=N/A speed=16.7x    frame= 6599 fps=400 q=-0.0 size=N/A time=00:04:34.95 bitrate=N/A speed=16.7x    frame= 6802 fps=400 q=-0.0 size=N/A time=00:04:43.41 bitrate=N/A speed=16.7x    frame= 7028 fps=401 q=-0.0 size=N/A time=00:04:52.83 bitrate=N/A speed=16.7x    frame= 7256 fps=402 q=-0.0 size=N/A time=00:05:02.33 bitrate=N/A speed=16.8x    frame= 7491 fps=403 q=-0.0 size=N/A time=00:05:12.12 bitrate=N/A speed=16.8x    frame= 7750 fps=406 q=-0.0 size=N/A time=00:05:22.91 bitrate=N/A speed=16.9x    frame= 8009 fps=409 q=-0.0 size=N/A time=00:05:33.70 bitrate=N/A speed=  17x    frame= 8265 fps=411 q=-0.0 size=N/A time=00:05:44.37 bitrate=N/A speed=17.1x    frame= 8501 fps=412 q=-0.0 size=N/A time=00:05:54.20 bitrate=N/A speed=17.2x    frame= 8726 fps=413 q=-0.0 size=N/A time=00:06:03.58 bitrate=N/A speed=17.2x    frame= 8920 fps=412 q=-0.0 size=N/A time=00:06:11.66 bitrate=N/A speed=17.2x    frame= 9106 fps=411 q=-0.0 size=N/A time=00:06:19.41 bitrate=N/A speed=17.1x    frame= 9308 fps=410 q=-0.0 size=N/A time=00:06:27.83 bitrate=N/A speed=17.1x    frame= 9543 fps=411 q=-0.0 size=N/A time=00:06:37.62 bitrate=N/A speed=17.1x    frame= 9791 fps=413 q=-0.0 size=N/A time=00:06:47.95 bitrate=N/A speed=17.2x    frame=10029 fps=414 q=-0.0 size=N/A time=00:06:57.87 bitrate=N/A speed=17.2x    frame=10228 fps=413 q=-0.0 size=N/A time=00:07:06.16 bitrate=N/A speed=17.2x    frame=10456 fps=414 q=-0.0 size=N/A time=00:07:15.66 bitrate=N/A speed=17.2x    frame=10715 fps=415 q=-0.0 size=N/A time=00:07:26.45 bitrate=N/A speed=17.3x    frame=10944 fps=416 q=-0.0 size=N/A time=00:07:36.00 bitrate=N/A speed=17.3x    frame=11175 fps=417 q=-0.0 size=N/A time=00:07:45.62 bitrate=N/A speed=17.4x    frame=11395 fps=417 q=-0.0 size=N/A time=00:07:54.79 bitrate=N/A speed=17.4x    frame=11648 fps=418 q=-0.0 size=N/A time=00:08:05.33 bitrate=N/A speed=17.4x    frame=11879 fps=419 q=-0.0 size=N/A time=00:08:14.95 bitrate=N/A speed=17.5x    frame=12094 fps=419 q=-0.0 size=N/A time=00:08:23.91 bitrate=N/A speed=17.4x    frame=12326 fps=419 q=-0.0 size=N/A time=00:08:33.58 bitrate=N/A speed=17.5x    frame=12570 fps=420 q=-0.0 size=N/A time=00:08:43.75 bitrate=N/A speed=17.5x    frame=12824 fps=422 q=-0.0 size=N/A time=00:08:54.33 bitrate=N/A speed=17.6x    frame=13068 fps=422 q=-0.0 size=N/A time=00:09:04.50 bitrate=N/A speed=17.6x    frame=13302 fps=423 q=-0.0 size=N/A time=00:09:14.25 bitrate=N/A speed=17.6x    frame=13563 fps=424 q=-0.0 size=N/A time=00:09:25.12 bitrate=N/A speed=17.7x    frame=13816 fps=425 q=-0.0 size=N/A time=00:09:35.66 bitrate=N/A speed=17.7x    frame=14059 fps=426 q=-0.0 size=N/A time=00:09:45.79 bitrate=N/A speed=17.8x    frame=14311 fps=427 q=-0.0 size=N/A time=00:09:56.29 bitrate=N/A speed=17.8x    frame=14530 fps=427 q=-0.0 size=N/A time=00:10:05.41 bitrate=N/A speed=17.8x    frame=14778 fps=428 q=-0.0 size=N/A time=00:10:15.75 bitrate=N/A speed=17.8x    frame=15022 fps=428 q=-0.0 size=N/A time=00:10:25.91 bitrate=N/A speed=17.9x    frame=15245 fps=428 q=-0.0 size=N/A time=00:10:35.20 bitrate=N/A speed=17.9x    frame=15481 fps=429 q=-0.0 size=N/A time=00:10:45.04 bitrate=N/A speed=17.9x    frame=15748 fps=430 q=-0.0 size=N/A time=00:10:56.16 bitrate=N/A speed=17.9x    frame=16008 fps=431 q=-0.0 size=N/A time=00:11:07.00 bitrate=N/A speed=  18x    frame=16232 fps=431 q=-0.0 size=N/A time=00:11:16.33 bitrate=N/A speed=  18x    frame=16489 fps=432 q=-0.0 size=N/A time=00:11:27.04 bitrate=N/A speed=  18x    frame=16762 fps=433 q=-0.0 size=N/A time=00:11:38.41 bitrate=N/A speed=18.1x    frame=17010 fps=434 q=-0.0 size=N/A time=00:11:48.75 bitrate=N/A speed=18.1x    frame=17252 fps=435 q=-0.0 size=N/A time=00:11:58.83 bitrate=N/A speed=18.1x    frame=17519 fps=436 q=-0.0 size=N/A time=00:12:09.95 bitrate=N/A speed=18.1x    frame=17741 fps=435 q=-0.0 size=N/A time=00:12:19.20 bitrate=N/A speed=18.1x    frame=17995 fps=436 q=-0.0 size=N/A time=00:12:29.79 bitrate=N/A speed=18.2x    frame=18266 fps=437 q=-0.0 size=N/A time=00:12:41.08 bitrate=N/A speed=18.2x    frame=18526 fps=438 q=-0.0 size=N/A time=00:12:51.91 bitrate=N/A speed=18.2x    frame=18789 fps=439 q=-0.0 size=N/A time=00:13:02.87 bitrate=N/A speed=18.3x    frame=19064 fps=440 q=-0.0 size=N/A time=00:13:14.33 bitrate=N/A speed=18.3x    frame=19320 fps=441 q=-0.0 size=N/A time=00:13:25.00 bitrate=N/A speed=18.4x    frame=19587 fps=442 q=-0.0 size=N/A time=00:13:36.12 bitrate=N/A speed=18.4x    frame=19848 fps=442 q=-0.0 size=N/A time=00:13:47.00 bitrate=N/A speed=18.4x    frame=20089 fps=443 q=-0.0 size=N/A time=00:13:57.04 bitrate=N/A speed=18.4x    frame=20357 fps=443 q=-0.0 size=N/A time=00:14:08.20 bitrate=N/A speed=18.5x    frame=20601 fps=444 q=-0.0 size=N/A time=00:14:18.37 bitrate=N/A speed=18.5x    frame=20884 fps=445 q=-0.0 size=N/A time=00:14:30.16 bitrate=N/A speed=18.5x    frame=21163 fps=446 q=-0.0 size=N/A time=00:14:41.79 bitrate=N/A speed=18.6x    frame=21389 fps=446 q=-0.0 size=N/A time=00:14:51.20 bitrate=N/A speed=18.6x    frame=21633 fps=446 q=-0.0 size=N/A time=00:15:01.37 bitrate=N/A speed=18.6x    frame=21870 fps=446 q=-0.0 size=N/A time=00:15:11.25 bitrate=N/A speed=18.6x    frame=22120 fps=447 q=-0.0 size=N/A time=00:15:21.66 bitrate=N/A speed=18.6x    frame=22375 fps=447 q=-0.0 size=N/A time=00:15:32.29 bitrate=N/A speed=18.6x    frame=22546 fps=446 q=-0.0 size=N/A time=00:15:39.41 bitrate=N/A speed=18.6x    frame=22681 fps=444 q=-0.0 size=N/A time=00:15:45.04 bitrate=N/A speed=18.5x    frame=22856 fps=443 q=-0.0 size=N/A time=00:15:52.33 bitrate=N/A speed=18.5x    frame=23084 fps=443 q=-0.0 size=N/A time=00:16:01.83 bitrate=N/A speed=18.5x    frame=23304 fps=443 q=-0.0 size=N/A time=00:16:11.00 bitrate=N/A speed=18.5x    frame=23505 fps=442 q=-0.0 size=N/A time=00:16:19.37 bitrate=N/A speed=18.4x    frame=23723 fps=442 q=-0.0 size=N/A time=00:16:28.45 bitrate=N/A speed=18.4x    frame=23921 fps=442 q=-0.0 size=N/A time=00:16:36.70 bitrate=N/A speed=18.4x    frame=24124 fps=441 q=-0.0 size=N/A time=00:16:45.16 bitrate=N/A speed=18.4x    frame=24330 fps=441 q=-0.0 size=N/A time=00:16:53.75 bitrate=N/A speed=18.4x    [Parsed_ssim_10 @ 0000024b1b8b8000] SSIM Y:0.993367 (21.782675) U:0.994856 (22.886913) V:0.995214 (23.200574) All:0.993923 (22.162973)
[out#0/null @ 0000024b0eca43c0] video:10513KiB audio:191164KiB subtitle:0KiB other streams:0KiB global headers:0KiB muxing overhead: unknown
frame=24466 fps=441 q=-0.0 Lsize=N/A time=00:16:59.41 bitrate=N/A speed=18.4x    
